<?xml version="1.0" standalone="no"?>
<!DOCTYPE svg PUBLIC "-//W3C//DTD SVG 20010904//EN"
 "http://www.w3.org/TR/2001/REC-SVG-20010904/DTD/svg10.dtd">
<svg version="1.0" xmlns="http://www.w3.org/2000/svg"
 width="633.000000pt" height="633.000000pt" viewBox="0 0 633.000000 633.000000"
 preserveAspectRatio="xMidYMid meet">
<metadata>
Created by potrace 1.14, written by Peter Selinger 2001-2017
</metadata>
<g transform="translate(0.000000,633.000000) scale(0.100000,-0.100000)"
fill="#000000" stroke="none">
<path d="M0 3165 l0 -3165 3165 0 3165 0 0 3165 0 3165 -3165 0 -3165 0 0
-3165z m3985 2575 c3 -5 24 -10 46 -10 21 0 39 -4 39 -10 0 -5 22 -10 49 -10
58 0 153 -17 160 -29 11 -16 50 -31 79 -31 17 0 59 -13 94 -30 34 -16 72 -30
83 -30 11 0 40 -14 64 -30 24 -17 52 -30 62 -30 22 0 69 -21 69 -30 0 -9 41
-25 85 -35 17 -4 44 -17 60 -29 17 -13 42 -26 58 -30 15 -3 37 -16 48 -27 11
-11 34 -22 51 -26 19 -4 37 -16 47 -34 9 -16 24 -29 33 -29 9 0 23 -8 30 -18
7 -11 31 -27 52 -37 21 -10 41 -27 44 -37 2 -10 8 -18 13 -18 4 0 36 -30 71
-66 35 -37 78 -81 96 -100 17 -18 32 -37 32 -41 0 -5 11 -20 24 -34 13 -14 27
-35 30 -46 4 -12 13 -24 21 -27 8 -3 15 -12 15 -19 0 -16 27 -75 45 -97 17
-21 45 -102 45 -128 0 -13 9 -35 19 -50 11 -15 25 -56 31 -92 6 -36 18 -87 26
-115 25 -88 34 -214 34 -475 -1 -286 -13 -504 -29 -524 -6 -7 -16 -49 -21 -92
-10 -76 -25 -138 -40 -159 -3 -5 -11 -28 -17 -50 -32 -116 -45 -155 -53 -160
-6 -4 -10 -16 -10 -27 0 -24 -36 -105 -51 -114 -5 -3 -9 -15 -9 -28 0 -24 -25
-82 -39 -91 -5 -2 -19 -36 -31 -74 -13 -38 -34 -82 -47 -97 -12 -15 -23 -32
-23 -39 0 -7 -8 -20 -19 -29 -10 -9 -21 -29 -24 -44 -3 -15 -24 -47 -46 -72
-22 -25 -41 -48 -41 -51 0 -3 -17 -14 -37 -25 -21 -10 -46 -29 -56 -41 -10
-13 -27 -23 -38 -23 -10 0 -19 -6 -19 -13 0 -8 -16 -22 -35 -33 -19 -10 -35
-22 -35 -27 0 -11 -26 -37 -37 -37 -4 0 -17 -11 -27 -25 -10 -14 -25 -25 -32
-25 -8 0 -14 -4 -14 -10 0 -5 -6 -10 -14 -10 -7 0 -28 -13 -47 -30 -84 -73
-83 -72 -189 -127 -41 -21 -84 -46 -95 -56 -11 -10 -32 -21 -47 -24 -15 -3
-39 -20 -52 -38 -14 -17 -59 -52 -100 -75 -42 -24 -76 -48 -76 -54 0 -11 -124
-76 -145 -76 -16 -1 -86 -36 -81 -41 3 -3 -7 -6 -21 -7 -14 -1 -64 -21 -111
-45 -117 -58 -132 -67 -132 -76 0 -5 -17 -12 -37 -16 -21 -4 -45 -13 -53 -20
-8 -7 -42 -18 -75 -23 -33 -6 -85 -18 -115 -26 -206 -57 -271 -75 -280 -81
-18 -11 -195 -54 -270 -65 -41 -6 -93 -18 -115 -26 -117 -41 -564 -69 -597
-36 -6 6 -22 12 -34 12 -12 0 -24 5 -26 12 -3 7 -37 15 -82 19 -43 4 -83 12
-89 18 -6 6 -25 11 -43 11 -17 0 -37 7 -44 15 -7 8 -23 15 -36 15 -13 0 -24 5
-24 10 0 6 -9 10 -20 10 -11 0 -20 7 -20 16 0 8 -16 22 -35 30 -19 8 -41 23
-47 34 -7 11 -18 20 -25 20 -6 0 -20 11 -31 25 -11 14 -23 25 -26 25 -4 0 -16
9 -28 20 -12 11 -28 20 -35 20 -7 0 -13 6 -13 13 0 8 -12 20 -27 28 -15 8 -47
34 -72 59 -25 25 -54 49 -63 53 -10 3 -20 17 -24 31 -3 14 -14 28 -24 31 -10
3 -25 17 -34 30 -9 14 -23 25 -31 25 -7 0 -22 14 -32 30 -9 17 -23 30 -29 30
-7 0 -16 15 -20 32 -3 18 -15 44 -25 57 -11 13 -19 36 -19 50 0 15 -11 51 -25
79 -14 29 -25 58 -25 66 0 8 -7 16 -15 20 -8 3 -15 16 -15 30 0 23 -27 84 -41
96 -4 3 -12 41 -19 85 -7 44 -17 84 -21 90 -5 5 -9 23 -9 41 0 18 -6 34 -12
36 -10 4 -14 108 -16 464 -4 482 1 604 23 604 7 0 15 19 19 48 4 26 9 67 13
92 3 25 12 54 19 65 8 11 14 26 14 35 0 8 6 26 13 40 8 15 17 55 20 90 4 35
11 66 15 69 14 11 30 58 37 107 4 27 16 57 26 67 11 10 19 27 19 37 0 11 5 20
10 20 6 0 10 11 10 24 0 14 6 31 12 38 20 21 48 75 48 92 0 8 9 20 20 26 11 6
23 22 26 35 3 14 10 25 15 25 5 0 9 9 9 19 0 11 9 23 20 26 13 4 23 18 27 36
3 16 12 29 19 29 8 0 14 7 14 15 0 8 3 15 8 15 4 0 20 23 35 50 16 28 32 50
37 50 5 0 11 14 15 30 4 20 13 30 25 30 11 0 20 10 24 30 3 17 12 30 20 30 8
0 17 8 21 19 3 10 26 41 50 67 25 27 45 55 45 62 0 6 9 12 20 12 11 0 20 4 20
10 0 11 56 70 68 70 4 0 16 14 25 30 10 17 23 30 28 30 5 0 33 24 62 54 29 30
66 61 82 69 17 9 37 25 45 36 8 12 22 21 32 21 9 0 19 9 23 19 3 10 19 24 35
31 16 7 32 21 35 31 4 12 16 19 31 19 13 0 24 4 24 8 0 4 14 13 30 19 17 6 30
17 30 25 0 7 17 21 38 30 40 19 74 39 82 50 3 3 18 10 33 13 15 4 31 13 35 19
4 7 28 23 55 36 26 13 47 27 47 32 0 4 9 8 19 8 11 0 22 4 25 9 3 4 23 11 45
15 22 3 44 13 48 21 9 14 109 45 150 45 13 0 26 7 29 15 4 8 15 15 25 15 10 0
38 4 61 10 24 5 60 12 80 15 21 3 44 12 52 20 8 8 26 15 40 15 14 0 45 4 68
10 24 5 120 15 213 21 94 6 172 15 173 20 5 13 339 11 347 -1z"/>
<path d="M3490 5400 c-101 -7 -140 -16 -140 -31 0 -5 -8 -9 -17 -9 -34 0 -158
-33 -168 -44 -13 -15 -60 -33 -108 -41 -21 -3 -46 -15 -55 -26 -9 -10 -31 -22
-48 -25 -18 -3 -41 -17 -53 -30 -11 -13 -33 -27 -48 -30 -15 -4 -46 -20 -69
-35 -22 -15 -53 -31 -67 -35 -15 -3 -27 -12 -27 -20 0 -8 -7 -14 -15 -14 -22
0 -92 -37 -115 -60 -11 -11 -27 -20 -35 -20 -8 0 -22 -11 -30 -24 -9 -13 -27
-27 -40 -30 -13 -3 -36 -19 -52 -35 -16 -15 -39 -31 -51 -35 -12 -4 -22 -14
-22 -23 0 -8 -13 -20 -28 -25 -16 -6 -33 -21 -38 -32 -5 -12 -18 -25 -30 -30
-11 -5 -25 -19 -30 -30 -5 -12 -18 -25 -30 -30 -11 -5 -28 -22 -37 -38 -9 -15
-23 -28 -31 -28 -9 0 -18 -11 -22 -24 -3 -13 -16 -33 -30 -45 -13 -11 -26 -32
-30 -46 -3 -14 -10 -25 -15 -25 -5 0 -9 -9 -9 -20 0 -11 -7 -20 -15 -20 -8 0
-15 -9 -15 -20 0 -11 -13 -29 -29 -41 -21 -15 -32 -34 -36 -61 -4 -23 -15 -44
-26 -51 -11 -7 -31 -34 -45 -62 -37 -74 -74 -138 -82 -145 -5 -3 -14 -21 -21
-40 -8 -19 -21 -42 -30 -50 -9 -8 -25 -37 -35 -65 -10 -27 -27 -58 -36 -67
-10 -9 -21 -33 -24 -53 -4 -21 -18 -48 -32 -62 -13 -13 -24 -34 -24 -46 0 -13
-5 -28 -10 -33 -6 -6 -13 -34 -17 -62 -3 -32 -11 -52 -18 -52 -22 0 -29 -231
-17 -529 9 -222 14 -277 26 -290 9 -10 16 -29 16 -44 0 -14 5 -29 10 -32 6 -3
10 -17 10 -30 0 -12 7 -25 15 -29 8 -3 15 -14 15 -25 0 -10 7 -21 15 -25 8 -3
15 -16 15 -30 0 -14 4 -28 10 -31 5 -3 20 -27 33 -54 14 -26 36 -59 51 -74 14
-14 26 -33 26 -42 0 -8 7 -15 15 -15 8 0 17 -11 21 -23 3 -13 23 -42 44 -63
22 -21 39 -44 40 -49 0 -6 20 -29 46 -50 25 -22 59 -54 77 -70 40 -39 118 -92
151 -105 14 -5 26 -16 26 -23 0 -14 40 -37 63 -37 7 0 20 -9 29 -19 9 -10 42
-27 75 -36 32 -9 61 -21 64 -27 16 -26 128 -38 356 -38 229 0 262 4 303 35 8
7 39 20 68 31 28 10 52 23 52 30 0 6 12 15 26 18 49 13 104 41 104 53 0 7 11
13 25 13 14 0 25 5 25 10 0 6 9 10 20 10 10 0 24 9 30 20 6 11 17 20 26 20 12
0 66 32 84 50 3 3 22 13 43 22 20 10 37 22 37 28 0 5 15 16 33 23 18 8 39 21
47 29 8 8 35 22 59 32 24 9 60 30 80 47 19 16 43 29 52 29 9 0 19 9 22 19 3
11 17 22 36 26 17 4 31 11 31 16 0 5 7 9 15 9 8 0 15 4 15 9 0 5 13 12 29 16
16 3 51 22 78 41 26 19 56 34 65 34 9 0 23 9 30 19 7 10 33 25 56 32 24 7 54
23 68 36 14 13 32 23 40 23 7 0 14 4 14 8 0 4 16 14 35 21 19 7 35 17 35 22 0
5 12 14 26 19 14 6 28 19 31 30 3 13 14 20 28 20 17 0 26 8 34 30 6 20 17 30
30 30 13 0 23 9 27 24 3 15 16 27 31 31 15 3 29 17 36 35 6 16 19 31 30 34 10
2 21 13 24 24 2 11 18 29 34 41 16 12 29 28 29 36 0 8 6 15 13 15 7 0 23 18
35 39 12 21 28 41 35 44 7 2 21 22 32 43 11 21 30 47 43 57 12 10 22 24 22 30
0 7 12 23 25 36 14 13 25 29 25 35 0 7 16 31 35 53 20 24 35 52 35 67 0 14 6
29 14 33 14 9 20 27 43 148 8 44 19 82 24 86 16 10 39 249 38 409 0 97 -5 179
-14 220 -8 36 -14 78 -15 93 0 16 -7 35 -15 43 -8 9 -15 29 -15 47 0 40 -21
97 -36 97 -6 0 -14 14 -18 31 -7 36 -35 99 -52 116 -7 7 -18 29 -24 48 -6 19
-18 35 -25 35 -7 0 -21 22 -29 48 -9 26 -25 55 -36 65 -11 9 -20 25 -20 35 0
9 -13 34 -30 54 -16 20 -34 48 -40 62 -5 14 -16 26 -25 26 -9 0 -18 12 -21 30
-4 17 -13 30 -20 30 -8 0 -14 5 -14 10 0 6 -7 10 -15 10 -8 0 -15 9 -15 20 0
11 -4 20 -8 20 -5 0 -27 18 -50 40 -22 22 -45 40 -50 40 -5 0 -12 6 -15 14 -3
8 -31 22 -61 32 -31 10 -56 21 -56 25 0 12 -27 18 -143 35 -62 8 -126 22 -144
30 -67 30 -439 43 -703 24z"/>
</g>
</svg>
